<svg width="86" height="86" viewBox="0 0 86 86" fill="none" xmlns="http://www.w3.org/2000/svg">
<rect width="86" height="86" rx="43" fill="#F40000"/>
<path d="M26.0401 43.5946L26.2031 43.9455C26.502 43.452 26.9198 42.7035 27.389 41.8631C28.7116 39.4934 30.5234 36.2478 32.3995 33.7159L32.4377 33.6667C34.3028 31.3589 36.3752 30.2368 38.7725 30.2368C39.5551 30.2368 40.3751 30.3618 41.21 30.608C44.0487 31.445 44.4866 33.238 44.543 33.9683C44.6535 35.3769 43.5701 38.0248 40.6711 39.3962L40.6687 41.4961C39.2284 41.1098 37.4622 40.3354 37.3207 39.1811C37.2035 38.2257 37.6952 37.3076 38.5658 36.8932C41.1504 35.667 41.6239 34.5895 41.583 34.1987C41.4013 32.457 37.743 31.8361 34.7661 35.5091C33.0103 37.8844 31.2605 41.0192 29.9818 43.3102C29.5679 44.0516 29.2098 44.6932 28.912 45.1997L37.4081 63.532C38.2445 63.3048 38.9759 63.2032 39.7159 63.2032C40.1766 63.2032 40.5992 63.2414 41.0101 63.2786C41.4618 63.3192 41.9289 63.3612 42.5282 63.3612C42.9267 63.3612 43.3418 63.3431 43.7978 63.3056C46.5047 63.084 50.8465 60.9722 52.832 59.85C53.8128 59.128 53.9035 58.6611 53.723 57.7048H56.7224C56.8875 59.1194 56.6428 60.7647 54.5052 62.3043L54.4409 62.3506L54.3722 62.3898C53.7362 62.7519 48.0433 65.9371 44.0404 66.2647C43.503 66.3089 43.0083 66.3303 42.5282 66.3303C41.7953 66.3303 41.2368 66.28 40.7396 66.2352C40.3652 66.2011 40.0423 66.1721 39.7156 66.1721C39.1776 66.1721 38.4935 66.2404 37.1431 66.7351L36.8527 66.85L37.0048 67.1772L29.6205 70.6106L18.6557 47.0281L26.0401 43.5946Z" fill="white"/>
<path d="M42.0504 52.0069V40.7772L42.8474 40.2166C43.7037 39.7097 44.4198 39.089 44.9944 38.4161V48.7631H64.0456V23.7801H44.9944V30.7347C44.3897 30.2286 43.5754 29.7686 42.4745 29.444C42.3327 29.4023 42.1916 29.3645 42.0504 29.3289V20.5361C42.0504 18.1936 43.9493 16.2947 46.2918 16.2947H62.7481C65.0906 16.2947 66.9895 18.1936 66.9895 20.5361V52.0068C66.9895 54.3494 65.0906 56.2484 62.7481 56.2484H46.2917C43.9492 56.2484 42.0504 54.3494 42.0504 52.0069ZM47.7908 20.2069C47.2885 20.2069 46.8813 20.6141 46.8813 21.1165C46.8813 21.6188 47.2885 22.0261 47.7908 22.0261C48.2932 22.0261 48.7005 21.6188 48.7005 21.1165C48.7005 20.6141 48.2932 20.2069 47.7908 20.2069ZM58.4563 20.3777H50.5836V21.8631H58.4563V20.3777V20.3777ZM54.5199 52.9823C55.3951 52.9823 56.1043 52.273 56.1043 51.398C56.1043 50.5231 55.3951 49.8138 54.5199 49.8138C53.6449 49.8138 52.9356 50.5231 52.9356 51.398C52.9356 52.273 53.6449 52.9823 54.5199 52.9823Z" fill="white"/>
<path d="M52.9449 34.5647C52.4785 34.5647 52.0991 34.1858 52.0991 33.7202C52.0991 33.2553 52.4782 32.8764 52.9449 32.8756C53.4107 32.8756 53.7893 33.2544 53.7893 33.7202C53.7893 34.1858 53.4107 34.5647 52.9449 34.5647Z" fill="white"/>
<path d="M55.8102 33.7202C55.8102 33.2553 56.1894 32.8764 56.6559 32.8756C57.1217 32.8756 57.5005 33.2544 57.5005 33.7202C57.5005 34.1858 57.1217 34.5647 56.6559 34.5647C56.1896 34.5647 55.8102 34.1858 55.8102 33.7202Z" fill="white"/>
<path d="M53.2183 36.8017C53.1356 36.6746 53.1541 36.5068 53.2624 36.4007C53.3707 36.2946 53.5387 36.2797 53.6643 36.365C53.9329 36.548 54.3472 36.6529 54.8004 36.6529C55.2524 36.6529 55.6673 36.5478 55.938 36.3644C56.0636 36.2796 56.2316 36.2949 56.3396 36.4013C56.4476 36.5075 56.4657 36.6752 56.3829 36.8021C56.0998 37.236 55.4933 37.5054 54.8004 37.5054C54.1068 37.5054 53.5005 37.2356 53.2183 36.8017Z" fill="white"/>
<path d="M60.5456 44.1459V46.1864H48.7924V44.1459C48.7924 41.7668 50.2777 39.7359 52.371 38.9259C50.4136 38.0089 49.0539 36.0208 49.0539 33.7202C49.0539 30.5519 51.6314 27.9742 54.7998 27.9742C56.1071 27.9742 57.3129 28.4138 58.2794 29.1519C58.8362 28.9757 59.1631 28.4663 59.1631 28.4663C59.1013 28.9022 58.8853 29.2241 58.6454 29.455C58.6904 29.4956 58.734 29.5377 58.7777 29.5797C59.3124 29.4887 59.6935 29.0996 59.6935 29.0996C59.5621 29.4654 59.3307 29.7201 59.0843 29.8968C59.9925 30.9133 60.5459 32.2531 60.5459 33.7201C60.5459 36.0681 59.1297 38.0904 57.1071 38.9808C59.1264 39.8257 60.5456 41.82 60.5456 44.1459ZM59.5909 33.7202C59.5909 32.5578 59.1744 31.491 58.4833 30.6604C57.8613 31.2332 56.4464 31.6335 54.7998 31.6335C53.153 31.6335 51.7381 31.2332 51.116 30.6604C50.4251 31.491 50.0086 32.5578 50.0086 33.7201C50.0086 36.3621 52.1579 38.5113 54.7998 38.5113C57.4417 38.5113 59.5909 36.362 59.5909 33.7202Z" fill="white"/>
</svg>
