<svg width="86" height="86" viewBox="0 0 86 86" fill="none" xmlns="http://www.w3.org/2000/svg">
<rect width="86" height="86" rx="43" fill="#F40000"/>
<g clip-path="url(#clip0)">
<path d="M53.7474 37.1381C53.7514 37.1381 53.7554 37.1381 53.7574 37.1381H67.9087V33.7312C67.9087 29.6011 64.5603 26.2527 60.4301 26.2527H44.5301V36.4188H41.6773V26.2527H25.5838C21.4537 26.2527 18.1053 29.6011 18.1053 33.7312V37.1381H32.454C32.456 37.1381 32.458 37.1361 32.46 37.1361C32.4721 37.0595 32.4822 36.983 32.4963 36.9084C32.7683 35.3772 33.3404 34.2994 33.552 33.9408C36.0986 33.5902 39.9547 36.2436 40.8734 36.9084C40.8936 36.9225 40.9198 36.9427 40.9379 36.9548V37.6901L39.4289 37.1381L38.8003 36.9084L38.6008 36.8359C38.4699 36.7875 38.3309 36.8238 38.2342 36.9084C38.1878 36.9487 38.1495 36.9951 38.1274 37.0555C38.1173 37.0837 38.1113 37.1099 38.1092 37.1381C38.0891 37.3053 38.1838 37.4705 38.349 37.531L40.9399 38.4779V38.6511L38.349 39.598C38.1838 39.6585 38.0891 39.8237 38.1092 39.9909C38.1133 40.0191 38.1193 40.0453 38.1274 40.0735C38.1818 40.2226 38.3248 40.3173 38.4759 40.3173C38.5182 40.3173 38.5605 40.3092 38.6028 40.2951L39.4329 39.9909L40.9419 39.4389V40.1743C40.7566 40.3092 40.3979 40.5631 39.9305 40.8673C38.3712 41.8807 35.5586 43.4643 33.556 43.1882C33.3767 42.882 32.9335 42.054 32.6393 40.8673C32.5708 40.5953 32.5144 40.2992 32.4681 39.9909H18.1053V52.466C18.1053 56.5961 21.4537 59.9445 25.5838 59.9445H41.6773V42.0217L41.0165 43.2547L36.1792 52.2907L34.7769 50.6044C34.7145 50.5298 34.6278 50.4835 34.5311 50.4734L32.3512 50.2417L35.8709 43.6677C36.7735 43.4079 37.6821 43.0029 38.5001 42.5738L36.9246 45.5172C36.8279 45.6966 36.8964 45.9222 37.0757 46.0189C37.1321 46.0491 37.1905 46.0632 37.251 46.0632C37.3839 46.0632 37.5109 45.9927 37.5774 45.8678L39.7069 41.8908C40.2468 41.5624 40.6981 41.2582 41.0185 41.0345C41.1051 40.9741 41.1797 40.9197 41.2461 40.8734C41.3207 40.819 41.3852 40.7726 41.4335 40.7364H42.3703L42.2978 40.8734L42.3663 40.7464H43.6114L43.6799 40.8734L43.6074 40.7364H44.7819C44.8283 40.7706 44.8948 40.819 44.9673 40.8734C44.9713 40.8774 44.9753 40.8794 44.9814 40.8834C45.2957 41.1091 45.8316 41.4818 46.5065 41.8928L48.6361 45.8698C48.7026 45.9947 48.8315 46.0652 48.9624 46.0652C49.0209 46.0652 49.0813 46.0511 49.1377 46.0209C49.3191 45.9242 49.3855 45.7006 49.2888 45.5193L47.7133 42.5758C48.4447 42.9606 49.2485 43.3252 50.0584 43.5831L53.6245 50.2437L51.4446 50.4754C51.3479 50.4855 51.2612 50.5318 51.1988 50.6064L49.7965 52.2927L44.9814 43.3011L44.5341 42.467V59.9486H60.4342C64.5643 59.9486 67.9127 56.6001 67.9127 52.47V39.9929H53.7917C53.7776 39.999 53.7615 40.005 53.7454 40.0111C53.699 40.3133 53.6426 40.6034 53.5761 40.8693C53.282 42.054 52.8387 42.884 52.6594 43.1903C50.6568 43.4663 47.8443 41.8827 46.2849 40.8693C45.8195 40.5671 45.4589 40.3113 45.2735 40.1763V39.4409L46.7825 39.9929L47.6126 40.2972C47.6549 40.3133 47.6972 40.3193 47.7395 40.3193C47.8906 40.3193 48.0317 40.2266 48.0881 40.0755C48.0981 40.0473 48.1042 40.0211 48.1062 39.9929C48.1263 39.8257 48.0317 39.6605 47.8665 39.6001L45.2735 38.6532V38.4799L47.8665 37.533C48.0317 37.4725 48.1263 37.3073 48.1062 37.1401C48.1022 37.1119 48.0961 37.0857 48.0881 37.0575C48.0659 36.9971 48.0256 36.9507 47.9813 36.9104C47.8826 36.8238 47.7456 36.7896 47.6146 36.8379L47.4152 36.9104L46.7866 37.1401L45.2776 37.6921V36.9568C45.2957 36.9447 45.3219 36.9245 45.342 36.9104C46.2607 36.2456 50.1149 33.5922 52.6635 33.9428C52.875 34.3014 53.4472 35.3793 53.7192 36.9104C53.7252 36.983 53.7373 37.0615 53.7474 37.1381ZM44.5321 39.9889L44.5301 39.9929H41.6773V39.9889H41.6712V37.1623H41.6773V37.1381H44.5301V37.1623H44.5321V39.9889Z" fill="white"/>
<path d="M33.0987 38.2039C33.0926 38.3308 33.0906 38.4497 33.0906 38.5665C33.0906 39.0783 33.1369 39.5537 33.2095 39.993C33.2619 40.3032 33.3263 40.5974 33.4009 40.8693C33.55 41.4214 33.7333 41.8928 33.9025 42.2575C33.965 42.3925 34.098 42.4731 34.239 42.4731C34.2914 42.4731 34.3438 42.461 34.3941 42.4388C34.5795 42.3522 34.6601 42.1326 34.5734 41.9472C34.4384 41.6571 34.2954 41.2924 34.1685 40.8693C34.0879 40.6014 34.0174 40.3072 33.961 39.993C33.8824 39.5578 33.832 39.0803 33.832 38.5665C33.832 38.4598 33.834 38.353 33.8401 38.2361C33.8481 38.0326 33.689 37.8594 33.4855 37.8513C33.278 37.8392 33.1067 37.9984 33.0987 38.2039Z" fill="white"/>
<path d="M52.3069 34.8716C52.2202 34.6862 52.0006 34.6056 51.8153 34.6922C51.6299 34.7789 51.5493 34.9985 51.636 35.1838C51.8354 35.613 52.055 36.2013 52.2041 36.9084C52.2202 36.983 52.2323 37.0615 52.2464 37.1381C52.325 37.5753 52.3794 38.0487 52.3794 38.5645C52.3794 38.77 52.5446 38.9352 52.7501 38.9352C52.9556 38.9352 53.1208 38.77 53.1208 38.5645C53.1208 38.0548 53.0745 37.5773 53.0019 37.1381C52.9899 37.0615 52.9778 36.983 52.9637 36.9084C52.7985 36.0663 52.5386 35.3732 52.3069 34.8716Z" fill="white"/>
<path d="M33.5802 37.1099C33.6064 37.1159 33.6346 37.1179 33.6608 37.1179C33.8018 37.1179 33.9268 37.0333 33.9892 36.9064C34.0013 36.8802 34.0154 36.856 34.0214 36.8258C34.1806 36.1066 34.4083 35.5344 34.5735 35.1818C34.6601 34.9965 34.5795 34.7769 34.3942 34.6902C34.2088 34.6036 33.9892 34.6842 33.9026 34.8695C33.7233 35.2564 33.4734 35.8829 33.3002 36.6667C33.282 36.7513 33.2982 36.8339 33.3344 36.9064C33.3808 37.0071 33.4654 37.0857 33.5802 37.1099Z" fill="white"/>
</g>
<defs>
<clipPath id="clip0">
<rect width="49.8055" height="33.6939" fill="white" transform="translate(18.1053 26.2527)"/>
</clipPath>
</defs>
</svg>
