<svg width="21" height="25" viewBox="0 0 21 25" fill="none" xmlns="http://www.w3.org/2000/svg">
<path d="M3.33361 0C2.44948 0 1.60156 0.351218 0.976391 0.976391C0.351218 1.60156 0 2.44948 0 3.33361V19.9983C0 20.8824 0.351218 21.7303 0.976391 22.3555C1.60156 22.9807 2.44948 23.3319 3.33361 23.3319H5.07708L5.49378 21.6651H3.33361C2.89154 21.6651 2.46759 21.4895 2.155 21.1769C1.84241 20.8643 1.6668 20.4404 1.6668 19.9983V3.33361C1.6668 2.89154 1.84241 2.46758 2.155 2.155C2.46759 1.84241 2.89154 1.6668 3.33361 1.6668H8.33402V5.83381C8.33402 6.49633 8.59697 7.13176 9.06513 7.60054C9.53329 8.06933 10.1684 8.33313 10.8309 8.33402H14.9979V10.7342C15.5079 10.3858 16.0763 10.1608 16.6647 10.0592V7.3556C16.6641 6.69273 16.4003 6.05722 15.9313 5.58879L11.0759 0.731727C10.6072 0.263324 9.97173 0.00014148 9.3091 0H3.33361ZM14.6529 6.66721H10.8342C10.6132 6.66721 10.4012 6.57941 10.2449 6.42311C10.0886 6.26682 10.0008 6.05484 10.0008 5.83381V2.01016L14.6545 6.66388L14.6529 6.66721ZM16.6647 11.7676C16.2613 11.886 15.8813 12.106 15.5613 12.4244L8.41736 19.5683C7.83779 20.1478 7.4225 20.8708 7.21392 21.6634L7.19892 21.7184L6.69555 23.7369C6.65308 23.907 6.65531 24.0852 6.70201 24.2541C6.74872 24.4231 6.83831 24.5771 6.96209 24.7012C7.08587 24.8253 7.23965 24.9154 7.40848 24.9625C7.57731 25.0097 7.75546 25.0124 7.92565 24.9704L9.94415 24.4653C10.7579 24.2621 11.5011 23.8415 12.0943 23.2486L19.2416 16.1013C19.651 15.6927 19.9126 15.1592 19.9848 14.5853C20.057 14.0114 19.9357 13.4297 19.6402 12.9325C19.3447 12.4352 18.8918 12.0506 18.3532 11.8397C17.8146 11.6287 17.221 11.6033 16.6664 11.7676H16.6647Z" fill="white"/>
</svg>
