<svg width="86" height="86" viewBox="0 0 86 86" fill="none" xmlns="http://www.w3.org/2000/svg">
<rect width="86" height="86" rx="43" fill="#F40000"/>
<path d="M54.4217 55.2274C53.9238 55.1667 53.4748 55.5234 53.4169 56.0204C53.3589 56.5174 53.7138 56.9673 54.2099 57.0252C63.7296 58.1459 68.8 61.1659 68.8 62.9158C68.8 65.3727 59.1571 68.8 43.4526 68.8C27.7481 68.8 18.1053 65.3727 18.1053 62.9158C18.1053 61.1659 23.1756 58.1459 32.6954 57.0252C33.1915 56.9673 33.5463 56.5165 33.4884 56.0204C33.4296 55.5234 32.9805 55.1649 32.4836 55.2274C22.952 56.3499 16.2947 59.5111 16.2947 62.9158C16.2947 66.7396 25.6235 70.6105 43.4526 70.6105C61.2818 70.6105 70.6105 66.7396 70.6105 62.9158C70.6105 59.5111 63.9532 56.3499 54.4217 55.2274Z" fill="white"/>
<path d="M43.2924 65.8642L57.18 45.8063C62.3889 38.862 61.6357 27.4476 55.5678 21.3805C52.2889 18.1007 47.9292 16.2947 43.2924 16.2947C38.6556 16.2947 34.2959 18.1007 31.017 21.3796C24.9491 27.4467 24.1959 38.8611 29.3839 45.7783L43.2924 65.8642ZM43.4526 27.1579C46.9469 27.1579 49.7895 30.0013 49.7895 33.4947C49.7895 36.9881 46.9469 39.8316 43.4526 39.8316C39.9583 39.8316 37.1158 36.9881 37.1158 33.4947C37.1158 30.0013 39.9583 27.1579 43.4526 27.1579Z" fill="white"/>
</svg>
