<svg width="31" height="22" viewBox="0 0 31 22" fill="none" xmlns="http://www.w3.org/2000/svg">
<path d="M1 3.85714C1 3.09938 1.30102 2.37266 1.83684 1.83684C2.37266 1.30102 3.09938 1 3.85714 1H26.7143C27.472 1 28.1988 1.30102 28.7346 1.83684C29.2704 2.37266 29.5714 3.09938 29.5714 3.85714V18.1429C29.5714 18.9006 29.2704 19.6273 28.7346 20.1632C28.1988 20.699 27.472 21 26.7143 21H3.85714C3.09938 21 2.37266 20.699 1.83684 20.1632C1.30102 19.6273 1 18.9006 1 18.1429V3.85714Z" stroke="white" stroke-width="2" stroke-linecap="round" stroke-linejoin="round"/>
<path d="M15.2857 15.2858C17.6526 15.2858 19.5714 13.3671 19.5714 11.0001C19.5714 8.6332 17.6526 6.71442 15.2857 6.71442C12.9188 6.71442 11 8.6332 11 11.0001C11 13.3671 12.9188 15.2858 15.2857 15.2858Z" stroke="white" stroke-width="2" stroke-linecap="round" stroke-linejoin="round"/>
<path d="M1 6.71429C2.51552 6.71429 3.96897 6.11225 5.04061 5.04061C6.11225 3.96897 6.71429 2.51552 6.71429 1" stroke="white" stroke-width="2" stroke-linecap="round" stroke-linejoin="round"/>
<path d="M23.8571 21C23.8571 19.4845 24.4591 18.031 25.5307 16.9594C26.6024 15.8878 28.0558 15.2857 29.5713 15.2857" stroke="white" stroke-width="2" stroke-linecap="round" stroke-linejoin="round"/>
</svg>
