<svg width="86" height="86" viewBox="0 0 86 86" fill="none" xmlns="http://www.w3.org/2000/svg">
<rect width="86" height="86" rx="43" fill="#F40000"/>
<path d="M23.3391 46.34V66.5654C23.3391 68.8004 25.1493 70.6105 27.3842 70.6105H40.5611V46.34H23.3391Z" fill="white"/>
<path d="M59.5427 70.6105C61.7777 70.6105 63.5878 68.8004 63.5878 66.5654V46.34H46.3658V70.6105H59.5427Z" fill="white"/>
<path d="M66.1059 44.2668V38.8363C66.1059 36.6014 64.2957 34.7912 62.0608 34.7912H50.2188C55.8415 34.7912 63.9316 29.3303 62.1518 23.5459C60.6855 18.712 56.2359 16.2647 51.7053 16.295C45.304 16.3355 43.6354 29.7652 43.6354 29.7652H43.4635C43.4635 29.7652 41.805 16.3355 35.3935 16.295C30.863 16.2647 26.4235 18.712 24.9369 23.5459C23.1672 29.3303 31.2473 34.7912 36.8801 34.7912H24.8661C22.6312 34.7912 20.821 36.6014 20.821 38.8363V44.2668H40.5611H46.3658H66.1059ZM56.4179 21.1795C56.4179 21.1795 56.2156 27.7932 47.3366 32.7282C47.3366 32.7181 49.0154 24.2335 56.4179 21.1795ZM30.7619 21.1795C38.1644 24.2436 39.8431 32.7282 39.8431 32.7282C30.954 27.7831 30.7619 21.1795 30.7619 21.1795Z" fill="white"/>
</svg>
