<svg width="22" height="25" viewBox="0 0 22 25" fill="none" xmlns="http://www.w3.org/2000/svg">
<path d="M14.2925 0H7.14626V2.38209H14.2925V0ZM9.52835 15.4836H11.9104V8.3373H9.52835V15.4836ZM19.0924 7.59886L20.7837 5.90758C20.2716 5.30014 19.7118 4.72844 19.1043 4.2282L17.4131 5.91949C15.5161 4.39296 13.1543 3.56085 10.7194 3.56122C4.79991 3.56122 0 8.36112 0 14.2806C0 20.2001 4.78799 25 10.7194 25C16.6508 25 21.4388 20.2001 21.4388 14.2806C21.4388 11.7675 20.5574 9.44497 19.0924 7.59886ZM10.7194 22.6298C6.11005 22.6298 2.38209 18.9019 2.38209 14.2925C2.38209 9.68318 6.11005 5.95522 10.7194 5.95522C15.3287 5.95522 19.0567 9.68318 19.0567 14.2925C19.0567 18.9019 15.3287 22.6298 10.7194 22.6298Z" fill="white"/>
</svg>
