<svg width="90" height="90" viewBox="0 0 90 90" fill="none" xmlns="http://www.w3.org/2000/svg">
<rect width="90" height="90" rx="45" fill="#F40000"/>
<path d="M24.4246 48.4953V69.6615C24.4246 72.0004 26.319 73.8947 28.6579 73.8947H42.4476V48.4953H24.4246Z" fill="white"/>
<path d="M62.3122 73.8947C64.651 73.8947 66.5454 72.0004 66.5454 69.6615V48.4953H48.5224V73.8947H62.3122Z" fill="white"/>
<path d="M69.1806 46.3258V40.6427C69.1806 38.3038 67.2862 36.4094 64.9474 36.4094H52.5546C58.4388 36.4094 66.9052 30.6945 65.0426 24.641C63.5081 19.5823 58.8515 17.0212 54.1103 17.0529C47.4112 17.0953 45.665 31.1496 45.665 31.1496H45.485C45.485 31.1496 43.7494 17.0953 37.0397 17.0529C32.2985 17.0212 27.6525 19.5823 26.0968 24.641C24.2448 30.6945 32.7007 36.4094 38.5954 36.4094H26.0227C23.6839 36.4094 21.7895 38.3038 21.7895 40.6427V46.3258H42.4477H48.5224H69.1806ZM59.042 22.1646C59.042 22.1646 58.8303 29.0859 49.5384 34.2505C49.5384 34.2399 51.2952 25.3607 59.042 22.1646ZM32.1927 22.1646C39.9395 25.3712 41.6963 34.2505 41.6963 34.2505C32.3938 29.0753 32.1927 22.1646 32.1927 22.1646Z" fill="white"/>
</svg>
